<svg xmlns="http://www.w3.org/2000/svg" width="128" height="128" viewBox="0 0 128 128">
  <defs>
    <linearGradient id="grad1" x1="0%" y1="0%" x2="100%" y2="100%">
      <stop offset="0%" style="stop-color:#ff6b6b;stop-opacity:1" />
      <stop offset="100%" style="stop-color:#ee5a5a;stop-opacity:1" />
    </linearGradient>
  </defs>
  <!-- 虾身 -->
  <ellipse cx="64" cy="75" rx="35" ry="25" fill="url(#grad1)"/>
  <!-- 虾头 -->
  <ellipse cx="64" cy="50" rx="22" ry="18" fill="#ff6b6b"/>
  <!-- 眼睛 -->
  <circle cx="56" cy="46" r="5" fill="#333"/>
  <circle cx="72" cy="46" r="5" fill="#333"/>
  <circle cx="57" cy="45" r="2" fill="#fff"/>
  <circle cx="73" cy="45" r="2" fill="#fff"/>
  <!-- 触须 -->
  <path d="M52 38 Q45 30 48 22" stroke="#ff6b6b" stroke-width="3" fill="none" stroke-linecap="round"/>
  <path d="M76 38 Q83 30 80 22" stroke="#ff6b6b" stroke-width="3" fill="none" stroke-linecap="round"/>
  <!-- 虾尾 -->
  <path d="M50 95 Q64 115 78 95" stroke="#ff6b6b" stroke-width="8" fill="none" stroke-linecap="round"/>
  <!-- 腿 -->
  <path d="M40 70 Q30 75 25 85" stroke="#ff6b6b" stroke-width="3" fill="none" stroke-linecap="round"/>
  <path d="M45 80 Q35 88 30 95" stroke="#ff6b6b" stroke-width="3" fill="none" stroke-linecap="round"/>
  <path d="M88 70 Q98 75 103 85" stroke="#ff6b6b" stroke-width="3" fill="none" stroke-linecap="round"/>
  <path d="M83 80 Q93 88 98 95" stroke="#ff6b6b" stroke-width="3" fill="none" stroke-linecap="round"/>
  <!-- 队列箭头图标 -->
  <circle cx="100" cy="30" r="20" fill="#4ade80"/>
  <path d="M92 30 L98 24 L98 28 L108 28 L108 32 L98 32 L98 36 Z" fill="#1a1a2e"/>
</svg>